{"title":"G.I. Joe Retaliation (2013) DVDRip X264 AC - BiTo","uid":8647855,"size":1339379364,"categoryP":"video","categoryS":"movies","magnet":"?xt=urn:btih:3c3d0eacb40a065ce1b42f479aed2a54ea67f885&amp;dn=G.I.+Joe+Retaliation+%282013%29+DVDRip+X264+AC+-+BiTo&amp;tr=udp%3A%2F%2Ftracker.openbittorrent.com%3A80&amp;tr=udp%3A%2F%2Fopen.demonii.com%3A1337&amp;tr=udp%3A%2F%2Ftracker.coppersurfer.tk%3A6969&amp;tr=udp%3A%2F%2Fexodus.desync.com%3A6969","seeders":1,"leechers":0,"uploader":"srkfan","files":4,"time":1373036017,"description":" &lt;a href=&quot;http://imageshack.us/a/img853/444/fu02.png&quot; rel=&quot;nofollow&quot; target=&quot;_NEW&quot;&gt;http://imageshack.us/a/img853/444/fu02.png&lt;/a&gt;\n &lt;a href=&quot;\nhttp://img163.imageshack.us/img163/9067/8d6y.jpg&quot; rel=&quot;nofollow&quot; target=&quot;_NEW&quot;&gt;\nhttp://img163.imageshack.us/img163/9067/8d6y.jpg&lt;/a&gt;\n &lt;a href=&quot;\nhttp://www.imdb.com/title/tt1583421/&quot; rel=&quot;nofollow&quot; target=&quot;_NEW&quot;&gt;\nhttp://www.imdb.com/title/tt1583421/&lt;/a&gt;\n\n\nSource: DVD9 PAL thx\nSample: Yes\nCodec: X264\nContainer: MKv\nAudio : Ac3 5 Channel @ English\nSubs: Eng Srt Included\n\nVideo\nID                                       : 1\nFormat                                   : AVC\nFormat/Info                              : Advanced Video Codec\nFormat profile                           : &lt;a class=&quot;__cf_email__&quot; href=&quot;/cdn-cgi/l/email-protection&quot; data-cfemail=&quot;2a674b43446a66180418&quot;&gt;[email&amp;#160;protected]&lt;/a&gt;&lt;script cf-hash='f9e31' type=&quot;text/javascript&quot;&gt;\n/* &lt;![CDATA[ */!function(){try{var t=&quot;currentScript&quot;in document?document.currentScript:function(){for(var t=document.getElementsByTagName(&quot;script&quot;),e=t.length;e--;)if(t[e].getAttribute(&quot;cf-hash&quot;))return t[e]}();if(t&amp;&amp;t.previousSibling){var e,r,n,i,c=t.previousSibling,a=c.getAttribute(&quot;data-cfemail&quot;);if(a){for(e=&quot;&quot;,r=parseInt(a.substr(0,2),16),n=2;a.length-n;n+=2)i=parseInt(a.substr(n,2),16)^r,e+=String.fromCharCode(i);e=document.createTextNode(e),c.parentNode.replaceChild(e,c)}}}catch(u){}}();/* ]]&gt; */&lt;/script&gt;\nFormat settings, CABAC                   : Yes\nFormat settings, ReFrames                : 4 frames\nCodec ID                                 : V_MPEG4/ISO/AVC\nDuration                                 : 1h 45mn\nBit rate                                 : 1 200 Kbps\nWidth                                    : 720 pixels\nHeight                                   : 288 pixels\nDisplay aspect ratio                     : 2.40:1\nFrame rate mode                          : Constant\nFrame rate                               : 25.000 fps\nColor space                              : YUV\nChroma subsampling                       : 4:2:0\nBit depth                                : 8 bits\nScan type                                : Progressive\nBits/(Pixel*Frame)                       : 0.231\nStream size                              : 879 MiB (71%)\nWriting library                          : x264 core 125\n\nAudio\nID                                       : 2\nFormat                                   : AC-3\nFormat/Info                              : Audio Coding 3\nMode extension                           : CM (complete main)\nFormat settings, Endianness              : Big\nCodec ID                                 : A_AC3\nDuration                                 : 1h 45mn\nBit rate mode                            : Constant\nBit rate                                 : 448 Kbps\nChannel(s)                               : 6 channels\nChannel positions                        : Front: L C R, Side: L R, LFE\nSampling rate                            : 48.0 KHz\nBit depth                                : 16 bits\nCompression mode                         : Lossy\nStream size                              : 339 MiB (27%)\nLanguage                                 : English\nDefault                                  : Yes\nForced                                   : No\n &lt;a href=&quot;\nhttp://img191.imageshack.us/img191/2312/ahmf.png&quot; rel=&quot;nofollow&quot; target=&quot;_NEW&quot;&gt;\nhttp://img191.imageshack.us/img191/2312/ahmf.png&lt;/a&gt; &lt;a href=&quot;\nhttp://img832.imageshack.us/img832/1852/fj.png&quot; rel=&quot;nofollow&quot; target=&quot;_NEW&quot;&gt;\nhttp://img832.imageshack.us/img832/1852/fj.png&lt;/a&gt; &lt;a href=&quot;\nhttp://img845.imageshack.us/img845/4219/kxr.png&quot; rel=&quot;nofollow&quot; target=&quot;_NEW&quot;&gt;\nhttp://img845.imageshack.us/img845/4219/kxr.png&lt;/a&gt;","torrent":{"xt":"urn:btih:3c3d0eacb40a065ce1b42f479aed2a54ea67f885","amp;dn":"G.I.+Joe+Retaliation+%282013%29+DVDRip+X264+AC+-+BiTo","amp;tr":["udp%3A%2F%2Ftracker.openbittorrent.com%3A80","udp%3A%2F%2Fopen.demonii.com%3A1337","udp%3A%2F%2Ftracker.coppersurfer.tk%3A6969","udp%3A%2F%2Fexodus.desync.com%3A6969"],"infoHash":"3c3d0eacb40a065ce1b42f479aed2a54ea67f885","infoHashBuffer":{"type":"Buffer","data":[60,61,14,172,180,10,6,92,225,180,47,71,154,237,42,84,234,103,248,133]},"announce":[],"urlList":[]}}